<svg xmlns="http://www.w3.org/2000/svg" viewBox="0 0 1200 630" role="img" aria-label="Cover: the Globle colour ramp from pale yellow to deep red beside a kilometre scale, titled Why Globle’s Colours Lie">
  <defs>
    <radialGradient id="glow" cx="50%" cy="38%" r="75%">
      <stop offset="0%" stop-color="#15304d"/><stop offset="100%" stop-color="#0B1622"/>
    </radialGradient>
    <radialGradient id="globe" cx="38%" cy="32%" r="80%">
      <stop offset="0%" stop-color="#1B3350"/><stop offset="100%" stop-color="#0E1C2E"/>
    </radialGradient>
    <clipPath id="disc"><circle cx="330" cy="315" r="205"/></clipPath>
  </defs>
  <rect width="1200" height="630" fill="url(#glow)"/>
  <g stroke="#F4C95D" stroke-opacity="0.07" fill="none">
    <path d="M0 105H1200M0 210H1200M0 315H1200M0 420H1200M0 525H1200"/>
    <path d="M150 0V630M300 0V630M450 0V630M600 0V630M750 0V630M900 0V630M1050 0V630"/>
  </g>
  <rect x="24" y="24" width="1152" height="582" fill="none" stroke="#F4C95D" stroke-opacity="0.35"/>
  <rect x="32" y="32" width="1136" height="566" fill="none" stroke="#F4C95D" stroke-opacity="0.15"/>
  <g>
    <rect x="175" y="215" width="58" height="200" fill="#8B0000"/>
    <rect x="237" y="215" width="58" height="200" fill="#C42D1C"/>
    <rect x="299" y="215" width="58" height="200" fill="#E8743B"/>
    <rect x="361" y="215" width="58" height="200" fill="#FEB24C"/>
    <rect x="423" y="215" width="58" height="200" fill="#FFEDA0"/>
  </g>
  <text x="175" y="200" font-family="'Space Mono',ui-monospace,monospace" font-size="16" fill="#9DB2C6">0 km</text>
  <text x="466" y="200" text-anchor="end" font-family="'Space Mono',ui-monospace,monospace" font-size="16" fill="#9DB2C6">12,000 km</text>
  <path d="M175 430H466" stroke="#F4C95D" stroke-opacity="0.5"/>
  <text x="320" y="458" text-anchor="middle" font-family="'Space Mono',ui-monospace,monospace" font-size="15" fill="#5E7891">3,000 km per segment</text>
  <text x="620" y="200" font-family="'Space Mono',ui-monospace,monospace" font-size="20" letter-spacing="5" fill="#F4C95D">FIELD NOTES · MECHANICS</text>
  <text x="620" y="278" font-family="Georgia,'Times New Roman',serif" font-size="58" fill="#EAF2F8">Why Globle's</text>
  <text x="620" y="348" font-family="Georgia,'Times New Roman',serif" font-size="58" fill="#EAF2F8">Colours Lie</text>
  <text x="620" y="418" font-family="Georgia,'Times New Roman',serif" font-size="58" fill="#F4C95D" font-style="italic">The Heat Scale Explained</text>
  <text x="620" y="528" font-family="'Space Mono',ui-monospace,monospace" font-size="19" fill="#9DB2C6">0 to 12,000 km · five stops · one blind spot</text>
  <g stroke="#F4C95D" stroke-opacity="0.6">
    <path d="M24 54V24H54M1146 24H1176V54M1176 576V606H1146M54 606H24V576" fill="none" stroke-width="2"/>
  </g>
</svg>
